<?xml version="1.0" encoding="UTF-8" standalone="no"?>
<svg
   xmlns:dc="http://purl.org/dc/elements/1.1/"
   xmlns:cc="http://creativecommons.org/ns#"
   xmlns:rdf="http://www.w3.org/1999/02/22-rdf-syntax-ns#"
   xmlns:svg="http://www.w3.org/2000/svg"
   xmlns="http://www.w3.org/2000/svg"
   xmlns:sodipodi="http://sodipodi.sourceforge.net/DTD/sodipodi-0.dtd"
   xmlns:inkscape="http://www.inkscape.org/namespaces/inkscape"
   width="190"
   height="19.88805"
   viewBox="0 0 50.270833 5.2620465"
   version="1.1"
   id="svg8"
   sodipodi:docname="bottomframe_dark.svg"
   inkscape:version="0.92.4 5da689c313, 2019-01-14">
  <sodipodi:namedview
     pagecolor="#ffffff"
     bordercolor="#666666"
     borderopacity="1"
     objecttolerance="10"
     gridtolerance="10"
     guidetolerance="10"
     inkscape:pageopacity="0"
     inkscape:pageshadow="2"
     inkscape:window-width="1277"
     inkscape:window-height="651"
     id="namedview7"
     showgrid="false"
     inkscape:zoom="6.8421053"
     inkscape:cx="95"
     inkscape:cy="9.944025"
     inkscape:window-x="0"
     inkscape:window-y="27"
     inkscape:window-maximized="0"
     inkscape:current-layer="svg8" />
  <defs
     id="defs2" />
  <metadata
     id="metadata5">
    <rdf:RDF>
      <cc:Work
         rdf:about="">
        <dc:format>image/svg+xml</dc:format>
        <dc:type
           rdf:resource="http://purl.org/dc/dcmitype/StillImage" />
        <dc:title />
      </cc:Work>
    </rdf:RDF>
  </metadata>
  <path
     id="rect4518-4"
     d="M 3.186725e-7,1.3167495 3.5409015,2.851552e-6 6.8158209,2.3858592 10.223731,3.207322 l 5.136802,0.2672774 1.546027,0.3676403 2.875944,-2.7731271 2.210985,1.8513014 3.540903,-0.5345548 2.875944,1.7372983 3.274918,-0.7821918 3.40791,1.0494692 2.60996,-3.0736854 3.540903,1.6232951 2.60996,-0.019601 3.141927,-0.1336437 3.274919,-1.4700208 v 3.94527 H 3.186725e-7 Z"
     style="opacity:1;fill:#0042b2;fill-opacity:1;stroke:none;stroke-width:0.26458699;stroke-miterlimit:4;stroke-dasharray:none;stroke-dashoffset:0;stroke-opacity:1" />
  <path
     d="M 0.08233565,1.3167492 3.6161679,2.4824399e-6 6.8845501,2.3858591 l 3.4011079,0.8214625 6.669488,0.6349178 2.870202,-2.773127 2.206571,1.8513006 3.533834,-0.5345539 2.870205,1.7372981 3.268378,-0.7821918 3.401106,1.0494692 2.604751,-3.0736854 3.533834,1.6232954 5.740406,-0.1532443 3.268379,-1.4700211"
     style="fill:none;fill-opacity:0.2655602;fill-rule:evenodd;stroke:#6c84f1;stroke-width:0.26432279px;stroke-linecap:butt;stroke-linejoin:miter;stroke-opacity:1"
     id="path4548" />
</svg>
